<?xml version="1.0" standalone="no"?><svg xmlns:xlink="http://www.w3.org/1999/xlink" xmlns="http://www.w3.org/2000/svg" viewBox="0 0 1000 583.3390259604497" preserveAspectRatio="xMaxYMax slice"><g transform="scale(1.0350231120660924)"><rect x="0" y="0" width="966.1714285714286" height="563.6" fill="#ffffff"/><rect x="0" y="0" width="80.51" height="80.51" fill="#ffffff"/><rect x="0" y="0" width="80.51" height="80.51" fill="#fefbff"/><rect x="80.51" y="0" width="80.51" height="80.51" fill="#3647e6"/><path d="M 80.51 80.51 A 80.51 80.51 0 0 1  161.02 0 L 80.51 80.51 A 80.51 80.51 0 0 0 161.02 0" fill="#fffeff"/><rect x="161.03" y="0" width="80.51" height="80.51" fill="#fefcff"/><path d="M 161.03 0 A 80.51 80.51 0 0 1  241.54000000000002 80.51 L 161.03 0 A 80.51 80.51 0 0 0 241.54000000000002 80.51" fill="#eae86c"/><rect x="241.54" y="0" width="80.51" height="80.51" fill="#f3f2ab"/><rect x="241.54" y="0" width="80.51" height="80.51" fill="#e3e13d"/><rect x="322.06" y="0" width="80.51" height="80.51" fill="#d6d9fa"/><rect x="322.06" y="0" width="80.51" height="80.51" fill="#d3d7f9"/><rect x="402.57" y="0" width="80.51" height="80.51" fill="#5867ea"/><path d="M 402.57 80.51 A 80.51 80.51 0 0 0 483.08 0 L 402.57 0" fill="#a4abf4"/><rect x="483.09" y="0" width="80.51" height="80.51" fill="#e2e038"/><path d="M 483.09 0 A 80.51 80.51 0 0 1  563.6 80.51 L 483.09 0 A 80.51 80.51 0 0 0 563.6 80.51" fill="#fdfbff"/><rect x="563.6" y="0" width="80.51" height="80.51" fill="#fdfbff"/><path d="M 563.6 80.51 A 80.51 80.51 0 0 1  644.11 0 L 644.11 80.51" fill="#fdfdf3"/><rect x="644.11" y="0" width="80.51" height="80.51" fill="#eeec85"/><polygon points="644.11,0 724.62,0 644.11,80.51" fill="#4454e8"/><rect x="724.63" y="0" width="80.51" height="80.51" fill="#f0ef97"/><polygon points="724.63,0 805.14,0 724.63,80.51" fill="#e6e34e"/><rect x="805.14" y="0" width="80.51" height="80.51" fill="#ffffff"/><path d="M 805.14 0 A 80.51 80.51 0 0 0 885.65 80.51 L 885.65 0" fill="#4e5ee9"/><rect x="885.66" y="0" width="80.51" height="80.51" fill="#f9f8d4"/><rect x="885.66" y="0" width="80.51" height="80.51" fill="#efee91"/><rect x="0" y="80.51" width="80.51" height="80.51" fill="#fefcff"/><polygon points="80.51,80.51 80.51,161.02 0,161.02" fill="#6c79ed"/><rect x="80.51" y="80.51" width="80.51" height="80.51" fill="#fffeff"/><path d="M 80.51 80.51 A 80.51 80.51 0 0 1  161.02 161.02 L 80.51 80.51 A 80.51 80.51 0 0 0 161.02 161.02" fill="#f2f1a7"/><rect x="161.03" y="80.51" width="80.51" height="80.51" fill="#c4caf8"/><path d="M 161.03 80.51 A 80.51 80.51 0 0 0 241.54000000000002 161.02 L 241.54000000000002 80.51" fill="#192de2"/><rect x="241.54" y="80.51" width="80.51" height="80.51" fill="#e2e038"/><polygon points="241.54,80.51 322.05,80.51 322.05,161.02" fill="#7a85ee"/><rect x="322.06" y="80.51" width="80.51" height="80.51" fill="#6a76ec"/><rect x="322.06" y="80.51" width="80.51" height="80.51" fill="#7d88ef"/><rect x="402.57" y="80.51" width="80.51" height="80.51" fill="#eae86f"/><rect x="402.57" y="80.51" width="80.51" height="80.51" fill="#fefeff"/><rect x="483.09" y="80.51" width="80.51" height="80.51" fill="#f3f1a9"/><polygon points="483.09,80.51 563.6,80.51 563.6,161.02" fill="#f1ef9c"/><rect x="563.6" y="80.51" width="80.51" height="80.51" fill="#3a4be6"/><path d="M 563.6 80.51 A 80.51 80.51 0 0 1  644.11 161.02 L 563.6 80.51 A 80.51 80.51 0 0 0 644.11 161.02" fill="#8b95f0"/><rect x="644.11" y="80.51" width="80.51" height="80.51" fill="#3345e5"/><rect x="644.11" y="80.51" width="80.51" height="80.51" fill="#f5f4b9"/><rect x="724.63" y="80.51" width="80.51" height="80.51" fill="#fefdff"/><path d="M 724.63 161.02 A 80.51 80.51 0 0 0 805.14 80.51 L 724.63 80.51" fill="#fdfaff"/><rect x="805.14" y="80.51" width="80.51" height="80.51" fill="#d3d7f9"/><path d="M 805.14 80.51 A 80.51 80.51 0 0 0 885.65 161.02 L 885.65 80.51" fill="#fffeff"/><rect x="885.66" y="80.51" width="80.51" height="80.51" fill="#f2f3fd"/><rect x="885.66" y="80.51" width="80.51" height="80.51" fill="#e1de2e"/><rect x="0" y="161.03" width="80.51" height="80.51" fill="#949df2"/><rect x="0" y="161.03" width="80.51" height="80.51" fill="#4f5ee9"/><rect x="80.51" y="161.03" width="80.51" height="80.51" fill="#fffeff"/><path d="M 80.51 161.03 A 80.51 80.51 0 0 1  161.02 241.54000000000002 L 80.51 161.03 A 80.51 80.51 0 0 0 161.02 241.54000000000002" fill="#fefdff"/><rect x="161.03" y="161.03" width="80.51" height="80.51" fill="#f4f5fe"/><rect x="161.03" y="161.03" width="80.51" height="80.51" fill="#e5e247"/><rect x="241.54" y="161.03" width="80.51" height="80.51" fill="#f1ef9b"/><polygon points="322.05,161.03 322.05,241.54000000000002 241.54,241.54000000000002" fill="#e1de2d"/><rect x="322.06" y="161.03" width="80.51" height="80.51" fill="#7e89ef"/><polygon points="322.06,161.03 402.57,161.03 402.57,241.54000000000002" fill="#fdfbff"/><rect x="402.57" y="161.03" width="80.51" height="80.51" fill="#fefeff"/><path d="M 402.57 161.03 A 80.51 80.51 0 0 1  483.08 241.54000000000002 L 402.57 161.03 A 80.51 80.51 0 0 0 483.08 241.54000000000002" fill="#fefdff"/><rect x="483.09" y="161.03" width="80.51" height="80.51" fill="#fefdff"/><path d="M 483.09 161.03 A 80.51 80.51 0 0 1 563.6 241.54000000000002 L 483.09 241.54000000000002" fill="#2739e4"/><rect x="563.6" y="161.03" width="80.51" height="80.51" fill="#fdfaff"/><path d="M 563.6 241.54000000000002 A 80.51 80.51 0 0 1  644.11 161.03 L 644.11 241.54000000000002" fill="#2c3fe5"/><rect x="644.11" y="161.03" width="80.51" height="80.51" fill="#cfd3f9"/><path d="M 644.11 241.54000000000002 A 80.51 80.51 0 0 1  724.62 161.03 L 724.62 241.54000000000002" fill="#9da6f3"/><rect x="724.63" y="161.03" width="80.51" height="80.51" fill="#edec84"/><path d="M 724.63 161.03 A 80.51 80.51 0 0 1 805.14 241.54000000000002 L 724.63 241.54000000000002" fill="#fdfdf2"/><rect x="805.14" y="161.03" width="80.51" height="80.51" fill="#fefdff"/><rect x="805.14" y="161.03" width="80.51" height="80.51" fill="#f9f8d4"/><rect x="885.66" y="161.03" width="80.51" height="80.51" fill="#fefcff"/><path d="M 885.66 241.54000000000002 A 80.51 80.51 0 0 1  966.17 161.03 L 885.66 241.54000000000002 A 80.51 80.51 0 0 0 966.17 161.03" fill="#fdfbff"/><rect x="0" y="241.54" width="80.51" height="80.51" fill="#e3e039"/><path d="M 0 241.54 A 80.51 80.51 0 0 1  80.51 322.05 L 0 241.54 A 80.51 80.51 0 0 0 80.51 322.05" fill="#fbfae0"/><rect x="80.51" y="241.54" width="80.51" height="80.51" fill="#f3f2a9"/><polygon points="80.51,241.54 161.02,241.54 161.02,322.05" fill="#fefdff"/><rect x="161.03" y="241.54" width="80.51" height="80.51" fill="#ecea7c"/><path d="M 161.03 241.54 A 80.51 80.51 0 0 1  241.54000000000002 322.05 L 161.03 241.54 A 80.51 80.51 0 0 0 241.54000000000002 322.05" fill="#1e31e3"/><rect x="241.54" y="241.54" width="80.51" height="80.51" fill="#edeb80"/><polygon points="241.54,241.54 322.05,241.54 241.54,322.05" fill="#ffffff"/><rect x="322.06" y="241.54" width="80.51" height="80.51" fill="#5c6aeb"/><rect x="322.06" y="241.54" width="80.51" height="80.51" fill="#fefcff"/><rect x="402.57" y="241.54" width="80.51" height="80.51" fill="#4353e7"/><polygon points="402.57,241.54 483.08,241.54 483.08,322.05" fill="#c5caf8"/><rect x="483.09" y="241.54" width="80.51" height="80.51" fill="#fdfcee"/><path d="M 483.09 241.54 A 80.51 80.51 0 0 1  563.6 322.05 L 483.09 241.54 A 80.51 80.51 0 0 0 563.6 322.05" fill="#faf9d9"/><rect x="563.6" y="241.54" width="80.51" height="80.51" fill="#dfdc22"/><rect x="563.6" y="241.54" width="80.51" height="80.51" fill="#e4e245"/><rect x="644.11" y="241.54" width="80.51" height="80.51" fill="#fefcff"/><polygon points="644.11,241.54 724.62,322.05 644.11,322.05" fill="#d2d6f9"/><rect x="724.63" y="241.54" width="80.51" height="80.51" fill="#f0ef97"/><path d="M 724.63 322.05 A 80.51 80.51 0 0 1  805.14 241.54 L 724.63 322.05 A 80.51 80.51 0 0 0 805.14 241.54" fill="#fefbff"/><rect x="805.14" y="241.54" width="80.51" height="80.51" fill="#fefdff"/><path d="M 805.14 322.05 A 80.51 80.51 0 0 1  885.65 241.54 L 805.14 322.05 A 80.51 80.51 0 0 0 885.65 241.54" fill="#eae86d"/><rect x="885.66" y="241.54" width="80.51" height="80.51" fill="#f4f5fe"/><rect x="885.66" y="241.54" width="80.51" height="80.51" fill="#fefdff"/><rect x="0" y="322.06" width="80.51" height="80.51" fill="#fefcff"/><rect x="0" y="322.06" width="80.51" height="80.51" fill="#e2df33"/><rect x="80.51" y="322.06" width="80.51" height="80.51" fill="#bdc3f7"/><polygon points="161.02,322.06 161.02,402.57 80.51,402.57" fill="#fefcff"/><rect x="161.03" y="322.06" width="80.51" height="80.51" fill="#f2f0a1"/><path d="M 161.03 402.57 A 80.51 80.51 0 0 1  241.54000000000002 322.06 L 161.03 402.57 A 80.51 80.51 0 0 0 241.54000000000002 322.06" fill="#4151e7"/><rect x="241.54" y="322.06" width="80.51" height="80.51" fill="#fffeff"/><rect x="241.54" y="322.06" width="80.51" height="80.51" fill="#fbfbe5"/><rect x="322.06" y="322.06" width="80.51" height="80.51" fill="#6270eb"/><rect x="322.06" y="322.06" width="80.51" height="80.51" fill="#4051e7"/><rect x="402.57" y="322.06" width="80.51" height="80.51" fill="#fdfbff"/><polygon points="402.57,322.06 483.08,402.57 402.57,402.57" fill="#fefdff"/><rect x="483.09" y="322.06" width="80.51" height="80.51" fill="#dcdffb"/><path d="M 483.09 402.57 A 80.51 80.51 0 0 1  563.6 322.06 L 483.09 402.57 A 80.51 80.51 0 0 0 563.6 322.06" fill="#fdfaff"/><rect x="563.6" y="322.06" width="80.51" height="80.51" fill="#ffffff"/><polygon points="563.6,322.06 644.11,322.06 644.11,402.57" fill="#a0a8f3"/><rect x="644.11" y="322.06" width="80.51" height="80.51" fill="#2437e4"/><polygon points="644.11,322.06 724.62,322.06 644.11,402.57" fill="#e3e03b"/><rect x="724.63" y="322.06" width="80.51" height="80.51" fill="#b4baf6"/><path d="M 724.63 402.57 A 80.51 80.51 0 0 1  805.14 322.06 L 805.14 402.57" fill="#eeec87"/><rect x="805.14" y="322.06" width="80.51" height="80.51" fill="#fefdff"/><rect x="805.14" y="322.06" width="80.51" height="80.51" fill="#f1f09e"/><rect x="885.66" y="322.06" width="80.51" height="80.51" fill="#ebe975"/><polygon points="885.66,322.06 966.17,402.57 885.66,402.57" fill="#fefdff"/><rect x="0" y="402.57" width="80.51" height="80.51" fill="#ffffff"/><path d="M 0 483.08 A 80.51 80.51 0 0 1  80.51 402.57 L 0 483.08 A 80.51 80.51 0 0 0 80.51 402.57" fill="#f3f2ac"/><rect x="80.51" y="402.57" width="80.51" height="80.51" fill="#9fa7f3"/><rect x="80.51" y="402.57" width="80.51" height="80.51" fill="#e3e13f"/><rect x="161.03" y="402.57" width="80.51" height="80.51" fill="#f4f3b0"/><polygon points="161.03,402.57 241.54000000000002,483.08 161.03,483.08" fill="#e3e03d"/><rect x="241.54" y="402.57" width="80.51" height="80.51" fill="#505fe9"/><rect x="241.54" y="402.57" width="80.51" height="80.51" fill="#7e89ef"/><rect x="322.06" y="402.57" width="80.51" height="80.51" fill="#fdfbff"/><rect x="322.06" y="402.57" width="80.51" height="80.51" fill="#ccd1f9"/><rect x="402.57" y="402.57" width="80.51" height="80.51" fill="#e5e34d"/><path d="M 402.57 483.08 A 80.51 80.51 0 0 1  483.08 402.57 L 483.08 483.08" fill="#b8bef6"/><rect x="483.09" y="402.57" width="80.51" height="80.51" fill="#dfdc23"/><rect x="483.09" y="402.57" width="80.51" height="80.51" fill="#6e7aed"/><rect x="563.6" y="402.57" width="80.51" height="80.51" fill="#fefdff"/><path d="M 563.6 402.57 A 80.51 80.51 0 0 1  644.11 483.08 L 563.6 402.57 A 80.51 80.51 0 0 0 644.11 483.08" fill="#f8f7cd"/><rect x="644.11" y="402.57" width="80.51" height="80.51" fill="#fefdff"/><path d="M 644.11 483.08 A 80.51 80.51 0 0 1  724.62 402.57 L 724.62 483.08" fill="#f6f6fe"/><rect x="724.63" y="402.57" width="80.51" height="80.51" fill="#fffeff"/><rect x="724.63" y="402.57" width="80.51" height="80.51" fill="#fefcff"/><rect x="805.14" y="402.57" width="80.51" height="80.51" fill="#9ea6f3"/><polygon points="805.14,402.57 885.65,402.57 805.14,483.08" fill="#f5f4bb"/><rect x="885.66" y="402.57" width="80.51" height="80.51" fill="#e7e9fc"/><path d="M 885.66 402.57 A 80.51 80.51 0 0 0 966.17 483.08 L 966.17 402.57" fill="#fffeff"/><rect x="0" y="483.09" width="80.51" height="80.51" fill="#2034e3"/><path d="M 0 563.6 A 80.51 80.51 0 0 1  80.51 483.09 L 80.51 563.6" fill="#c1c7f7"/><rect x="80.51" y="483.09" width="80.51" height="80.51" fill="#fffffe"/><path d="M 80.51 483.09 A 80.51 80.51 0 0 0 161.02 563.6 L 161.02 483.09" fill="#fdfaff"/><rect x="161.03" y="483.09" width="80.51" height="80.51" fill="#aeb5f5"/><polygon points="161.03,483.09 241.54000000000002,483.09 241.54000000000002,563.6" fill="#8a94f0"/><rect x="241.54" y="483.09" width="80.51" height="80.51" fill="#fefcff"/><path d="M 241.54 563.6 A 80.51 80.51 0 0 1  322.05 483.09 L 241.54 563.6 A 80.51 80.51 0 0 0 322.05 483.09" fill="#b2b9f5"/><rect x="322.06" y="483.09" width="80.51" height="80.51" fill="#fdfbff"/><path d="M 322.06 563.6 A 80.51 80.51 0 0 1  402.57 483.09 L 402.57 563.6" fill="#fffeff"/><rect x="402.57" y="483.09" width="80.51" height="80.51" fill="#2c3ee4"/><polygon points="483.08,483.09 483.08,563.6 402.57,563.6" fill="#dcdffb"/><rect x="483.09" y="483.09" width="80.51" height="80.51" fill="#ffffff"/><path d="M 483.09 483.09 A 80.51 80.51 0 0 1  563.6 563.6 L 483.09 483.09 A 80.51 80.51 0 0 0 563.6 563.6" fill="#efee90"/><rect x="563.6" y="483.09" width="80.51" height="80.51" fill="#fdfaff"/><path d="M 563.6 483.09 A 80.51 80.51 0 0 1 644.11 563.6 L 563.6 563.6" fill="#4756e8"/><rect x="644.11" y="483.09" width="80.51" height="80.51" fill="#f1f09d"/><path d="M 644.11 563.6 A 80.51 80.51 0 0 1  724.62 483.09 L 724.62 563.6" fill="#faf9dc"/><rect x="724.63" y="483.09" width="80.51" height="80.51" fill="#7a85ee"/><polygon points="724.63,483.09 805.14,483.09 724.63,563.6" fill="#4454e8"/><rect x="805.14" y="483.09" width="80.51" height="80.51" fill="#cacff8"/><polygon points="805.14,483.09 885.65,483.09 805.14,563.6" fill="#fefcff"/><rect x="885.66" y="483.09" width="80.51" height="80.51" fill="#fefcff"/><path d="M 885.66 483.09 A 80.51 80.51 0 0 0 966.17 563.6 L 966.17 483.09" fill="#fefcff"/></g></svg>